<?xml version="1.0" standalone="no"?>
<!DOCTYPE svg PUBLIC "-//W3C//DTD SVG 20010904//EN"
 "http://www.w3.org/TR/2001/REC-SVG-20010904/DTD/svg10.dtd">
<svg version="1.0" xmlns="http://www.w3.org/2000/svg"
 width="408.000000pt" height="399.000000pt" viewBox="0 0 408.000000 399.000000"
 preserveAspectRatio="xMidYMid meet">

<g transform="translate(0.000000,399.000000) scale(0.100000,-0.100000)"
fill="#000000" stroke="none">
<path d="M1795 3913 c-364 -48 -646 -154 -930 -352 -126 -87 -386 -339 -476
-461 -160 -216 -268 -458 -327 -730 -25 -118 -27 -141 -27 -385 0 -283 8 -350
64 -542 94 -325 273 -613 535 -860 393 -370 862 -553 1418 -553 479 0 904 147
1272 440 522 416 790 1017 737 1657 -38 466 -203 829 -531 1167 -340 350 -712
544 -1171 611 -99 14 -477 20 -564 8z m411 -173 c171 -14 324 -43 464 -90 113
-38 230 -87 230 -96 0 -3 -4 -3 -8 0 -4 2 -37 7 -74 11 -167 16 -418 -73 -658
-233 l-105 -71 -40 35 c-146 127 -353 253 -465 285 -25 6 -90 15 -145 18
l-100 6 126 42 c146 48 299 80 449 92 152 12 183 12 326 1z m-1236 -362 c-113
-134 -153 -252 -152 -448 1 -195 53 -401 168 -655 l54 -119 -23 -26 c-445
-487 -699 -760 -707 -760 -4 0 -17 33 -29 73 -126 427 -96 882 85 1265 91 195
255 410 429 565 76 67 220 177 232 177 2 0 -24 -32 -57 -72z m2267 -40 c147
-116 297 -281 403 -444 227 -347 316 -821 235 -1254 -26 -138 -60 -250 -75
-250 -4 0 -25 19 -46 43 -20 23 -150 159 -289 302 -138 143 -278 289 -312 325
l-61 65 72 146 c120 244 167 418 167 624 0 190 -42 312 -167 483 -26 35 -11
27 73 -40z m-1687 -14 c66 -21 149 -79 235 -163 l74 -74 -25 -31 c-15 -17 -65
-72 -113 -121 -47 -50 -153 -162 -236 -250 -82 -88 -171 -182 -198 -210 l-47
-50 -24 29 c-39 48 -105 190 -126 272 -26 100 -26 218 -1 317 26 99 50 144
103 193 115 106 221 132 358 88z m1316 -54 c61 -30 119 -92 156 -167 60 -122
49 -280 -32 -480 -44 -106 -107 -223 -120 -223 -11 0 -625 668 -625 678 1 12
138 101 220 142 160 80 302 97 401 50z m-475 -742 c183 -200 338 -368 345
-374 8 -6 14 -18 14 -26 0 -8 -60 -127 -134 -264 l-135 -249 -435 -3 -435 -2
-7 22 c-4 13 -53 126 -110 251 -57 125 -107 239 -110 253 -7 25 -7 25 316 374
58 63 160 174 226 247 65 72 122 132 126 132 4 1 156 -162 339 -361z m-1150
-774 c38 -72 69 -134 69 -138 0 -3 -94 -6 -210 -6 -116 0 -210 3 -210 6 0 7
99 127 199 243 65 75 51 84 152 -105z m1783 -152 c-114 -1 -209 0 -212 3 -6 5
24 65 106 213 l35 64 139 -139 138 -138 -206 -3z m-654 -247 c0 -17 -305 -614
-311 -608 -4 5 -45 89 -89 188 -45 99 -106 233 -136 297 -30 64 -54 119 -54
122 0 3 133 6 295 6 162 0 295 -2 295 -5z m1421 -17 c-29 -74 -76 -167 -126
-249 -267 -438 -714 -757 -1200 -858 -171 -35 -391 -53 -383 -32 2 5 131 268
287 585 l285 576 573 0 573 0 -9 -22z m-2031 -570 c156 -312 281 -570 277
-574 -4 -4 -69 -2 -145 4 -452 37 -841 214 -1156 526 -116 115 -166 175 -252
301 -69 102 -167 292 -158 307 3 4 263 7 577 6 l572 -3 285 -567z"/>
</g>
</svg>
