<?xml version="1.0" encoding="utf-8"?>
<!-- Generator: Adobe Illustrator 16.0.0, SVG Export Plug-In . SVG Version: 6.00 Build 0)  -->
<svg version="1.2" baseProfile="tiny" id="Layer_1" xmlns="http://www.w3.org/2000/svg" xmlns:xlink="http://www.w3.org/1999/xlink"
	 x="0px" y="0px" width="800px" height="800px" viewBox="0 0 800 800" xml:space="preserve">
<g>
	<g>
		<path fill-rule="evenodd" d="M639.088,455.416c0.109,0.447,0.267,1.087,0.456,1.861c-0.461,0-0.736-0.031-1.002,0.004
			c-4.464,0.6-9.043,0.772-13.351,1.948c-3.616,0.988-6.712,0.264-8.241-3.106c-0.335-0.739-1.285-1.637-2.006-1.689
			c-3.567-0.255-5.522-2.617-7.031-5.324c-1.331-2.387-2.183-5.043-3.237-7.584c-0.077-0.186-0.191-0.483-0.109-0.589
			c3.126-3.958-0.982-7.816-0.164-11.854c0.492-2.43-0.182-5.138-0.579-7.682c-0.129-0.821-1.048-1.518-1.919-2.695
			c1.726-2.64,1.858-6.252,0.846-10.051c-0.313-1.172-0.133-2.492-0.085-3.74c0.154-4.035,0.354-8.066,0.546-12.324
			c-0.513-0.415-1.427-1.157-2.353-1.907c-1.9,2.561-2.813,5.614-1.111,9.077c0.142,0.287-0.307,0.843-0.188,1.169
			c0.795,2.188-1.885,5.162,1.557,6.875c0.253,0.126-0.094,2.634-0.828,3.337c-1.934,1.853-1.168,3.676-1.099,5.881
			c0.112,3.604-1.127,7.229-1.533,10.875c-0.609,5.447-2.411,10.529-4.418,15.552c-1.727,4.321-4.644,7.867-8.309,10.608
			c-2.203,1.648-4.896,2.723-7.499,3.707c-0.789,0.299-2.019-0.849-3.046-0.847c-3.369,0.004-6.739,0.347-10.106,0.331
			c-2.41-0.012-4.816-0.43-7.229-0.595c-1.853-0.128-3.714-0.206-5.569-0.185c-0.988,0.012-1.973,0.28-2.274,0.327
			c-1.521-2.022-3.255-3.437-3.74-5.196c-0.608-2.206-0.255-4.697-0.2-7.063c0.053-2.396,0.28-4.787,0.37-7.183
			c0.063-1.682,0.024-3.366,0.032-5.051c0.008-1.891,0.019-3.78,0.022-5.67c0.006-2.099,0.006-4.196,0.006-6.294
			c0.001-4.375,0-8.751,0-13.574c0.806,0.654,1.229,0.998,2.305,1.871c-0.52-2.152-0.523-3.843-1.302-5.019
			c-1.261-1.903-1.976-3.516-1.274-5.936c0.586-2.029,0.003-4.366,0.323-6.509c0.447-2.999-1.206-6.008,0.944-9.169
			c0.947-1.393-0.867-4.469-0.952-6.799c-0.177-4.812-0.026-9.634-0.022-14.452c0.003-3.045-0.015-6.09-0.021-9.135
			c-0.003-1.982-0.029-3.964,0.007-5.945c0.055-3.008,1.361-3.974,4.191-3.223c0.641,0.169,1.495,0.419,1.977,0.147
			c4.003-2.258,8.039-0.755,12.114-0.402c3.624,0.315,7.299-0.018,10.943,0.137c2.544,0.107,5.1,0.42,7.603,0.893
			c2.079,0.392,3.908,1.244,5.16,3.28c0.698,1.135,2.729,1.535,3.248,2.679c1.09,2.404,1.579,5.082,2.36,7.805
			c-1.502,0.258-2.174,0.375-2.861,0.493c0.706,1.848,1.381,3.613,2.418,6.33c0.498-3.129,0.857-5.381,1.216-7.633
			c3.645,8.198,5.764,16.703,5.688,25.6c-0.798,0.504-1.799,1.139-2.744,1.737c1.57,0.429,2.821,0.77,4.24,1.156
			c3.396-6.343,3.031-13.798,3.427-21.215c0.178-3.34,1.632-6.724,3.022-9.859c1.728-3.892,3.21-8.18,7.436-10.235
			c1.457-0.708,2.832-2.552,5.04-0.661c0.624,0.534,2.852-0.804,4.344-1.284c-0.013,0.415-0.026,0.83-0.038,1.245
			c0.805,0.222,1.962,0.903,2.361,0.596c3.782-2.906,8.139-1.923,11.103-2.138c2.662,2.265,4.532,3.857,6.553,5.577
			c0.607-0.394,1.268-0.822,2.145-1.39c1.33,1.934,2.628,3.82,3.795,5.518c0.712-0.849,1.585-1.891,2.659-3.174
			c2.17,3.26,2.809,0.735,3.818-0.689c-0.903-0.251-1.751-0.487-3.163-0.879c1.083-1.726,1.984-3.163,2.425-3.866
			c2.828,0.546,4.849,1.026,6.896,1.307c2.266,0.311,4.151,0.498,4.981,3.42c0.52,1.832,2.641,3.211,4.052,4.784
			c0.122,0.136,0.468,0.25,0.452,0.305c-1.08,3.956,5.229,6.737,1.716,11.27c-0.624,0.808,0.436,2.921,0.875,5.274
			c-1.478,2.03-0.989,5.035,1.616,7.743c0.731,0.76,0.902,2.261,0.956,3.438c0.175,3.884,0.032,7.785,0.291,11.661
			c0.256,3.824,0.851,7.625,1.262,11.14c0.104-0.188,0.857-0.947,0.936-1.771c0.34-3.598,0.57-7.21,0.664-10.822
			c0.046-1.821-0.723-3.751-0.338-5.455c0.516-2.282,2.673-4.249,1.001-6.858c2.902-3.096,0.677-7.096,1.844-10.57
			c0.734-2.185,0.29-4.738,0.694-7.07c0.464-2.683,1.387-5.285,1.892-7.963c0.228-1.205,0.214-2.614-0.194-3.75
			c-1.252-3.498-0.038-5.137,3.579-4.814c1.612,0.144,3.274-0.364,4.909-0.333c2.866,0.053,5.729,0.292,9.025,0.479
			c0.643,4.61,1.295,9.293,1.974,14.161c0.526,0.115,1.295,0.285,2.162,0.475c1.183,13.048,2.353,25.949,3.521,38.851
			c0.232,0.062,0.464,0.123,0.695,0.184c0.391-0.95,0.972-1.866,1.142-2.854c0.974-5.634,1.981-11.269,2.713-16.936
			c0.464-3.598,2.604-7.146,0.525-10.916c-0.31-0.561-0.204-1.476-0.028-2.16c1.454-5.648,1.176-11.474,1.791-17.208
			c0.402-3.743,1.478-5.585,4.999-5.433c4.128,0.179,8.365,0.815,12.245,2.154c1.448,0.5,2.021,3.539,2.693,4.839
			c0.143-0.981,0.421-2.895,0.735-5.052c0.55,0.182,0.917,0.445,1.207,0.378c3.423-0.796,6.925-1.384,10.227-2.538
			c4.335-1.517,9.374,1.467,9.911,5.973c0.675,5.668,1.533,11.321,2.538,16.94c0.366,2.047,1.37,3.981,2.1,5.96
			c0.387,1.048,1.11,2.069,1.161,3.127c0.191,3.924,1.31,7.508,2.743,11.168c1.329,3.391,1.593,7.2,2.479,11.585
			c1.053-4.06,1.955-7.167,2.605-10.325c0.15-0.733-0.566-1.641-0.869-2.473c-0.497-1.367-0.75-2.587,1.83-2.143
			c-2.77-9.479-2.033-19.076-2.131-28.626c-0.03-2.906-1.013-5.76,0.544-8.679c0.987-1.854,1.918-2.313,3.994-2.088
			c2.726,0.295,5.567,0.173,8.283-0.256c3.641-0.576,6.008,1.463,5.4,5.038c-0.139,0.813-0.048,1.665-0.048,2.499
			c-0.002,11.787-0.001,23.573-0.001,35.36c0,2.829,0.002,5.659-0.007,8.489c-0.001,0.414,0.108,0.974-0.11,1.219
			c-2.863,3.219-1.468,6.866-1.246,10.451c0.126,2.02-0.285,4.083-0.553,6.114c-0.574,4.362-1.542,8.7-1.733,13.075
			c-0.201,4.631,0.427,9.291,0.469,13.94c0.024,2.741-0.441,5.482-0.585,8.229c-0.101,1.907,0.092,3.836-0.057,5.737
			c-0.361,4.582-4.224,6.453-7.557,7.145c-2.989,0.619-6.499,1.779-9.854-0.188c-2.015-1.182-2.805-2.521-2.481-4.64
			c0.697-4.58,1.57-9.156-1.203-13.428c-0.15-0.232-0.07-0.607-0.118-0.913c-0.628-4.013-1.052-8.073-1.969-12.02
			c-0.56-2.415-2.013-4.608-2.824-6.982c-1.023-2.995-1.876-6.055-2.666-9.122c-1.006-3.905-1.877-7.846-2.802-11.772
			c-0.114-0.485-0.455-1.262-0.272-1.421c2.939-2.554-0.736-4.236-0.484-6.404c-0.369,0.016-0.739,0.032-1.108,0.048
			c0.226,3.462,0.509,6.922,0.661,10.387c0.174,3.974,0.601,7.985,0.251,11.922c-0.499,5.611-0.338,11.065,0.75,16.616
			c0.802,4.087,1.411,8.441-1.787,12.136c-0.438,0.507-0.254,1.603-0.259,2.425c-0.021,4.073-0.01,8.146-0.01,12.416
			c-5.023-0.229-9.765-0.444-15.249-0.695c0-3.361,0.048-6.688-0.018-10.015c-0.041-2.129-0.395-4.258-0.347-6.381
			c0.068-2.963,0.549-5.923,0.522-8.881c-0.014-1.545-0.977-3.067-1.084-4.628c-0.199-2.917-0.62-5.971-0.006-8.761
			c1.773-8.062,1.084-16.08,0.616-24.171c-0.262-4.521,0.429-9.091,0.517-13.641c0.105-5.452,0.024-10.906,0.024-16.359
			c0-3.245,0-6.49,0-9.878c-4.272,5.379-1.507,12.033-3.688,17.715c-0.902,2.349-1.138,4.958-1.627,7.458
			c-0.177,0.903-0.579,2.011-0.24,2.721c1.461,3.05-0.352,4.863-1.896,6.332c0.462,1.531,1.229,2.77,1.123,3.93
			c-0.71,7.767-0.882,15.688-2.672,23.216c-1.386,5.825-2.041,11.56-2.271,17.441c-0.005,0.104,0.034,0.271-0.017,0.304
			c-3.725,2.459-1.673,5.602-1.348,8.774c0.504,4.903,0.178,4.937-4.812,6.994c1.154,0.488,2.586,0.769,3.549,1.597
			c0.859,0.737,1.2,2.078,2.18,3.929c-0.551,1.068-1.455,2.191-4.451,2.026c-4.168-0.23-8.454,0.816-12.626,1.645
			c-6.641,1.319-7.12,0.063-8.083-5.98c-0.578-3.629-1.005-7.293-1.24-10.957c-0.116-1.813,0.705-3.703,0.495-5.485
			c-0.667-5.644-1.123-11.392-2.634-16.828c-1.074-3.864,0.712-6.196,2.105-8.077c-1.596-2.336-2.862-4.188-4.37-6.393
			c-0.442,4.554-0.782,8.936-1.316,13.295c-0.516,4.207-1.079,8.42-1.895,12.576c-1.104,5.628-1.432,11.308-1.353,17.038
			c-0.257,0.035-0.514,0.071-0.77,0.107c-0.189-1.037-0.38-2.075-0.684-3.736c-0.349,3.263-0.536,5.899-0.942,8.5
			c-0.268,1.708-0.851,3.366-1.371,5.34c-0.283-0.153,0.244,0.133,0.772,0.42c-0.032,0.184-0.064,0.367-0.096,0.551
			c-3.026,0-6.053,0.026-9.078-0.019c-0.703-0.01-1.398-0.357-2.103-0.381c-3.299-0.111-6.878,0.903-9.587-3.746
			c0.113-0.04,0.976-0.342,1.817-0.637c-0.087-0.254-0.108-0.412-0.188-0.532c-0.466-0.713-1.302-1.391-1.359-2.13
			c-0.254-3.313-2.201-6.323-0.01-10.104c1.199-2.068-0.448-5.774-0.774-8.746c-0.127-1.158-0.081-2.338-0.231-3.491
			c-0.672-5.138-1.438-10.263-2.035-15.407c-0.109-0.938,0.399-1.946,0.427-2.07c-0.559-2.05-1.091-3.383-1.269-4.761
			c-0.86-6.672-1.532-13.368-2.473-20.028c-0.335-2.368-1.283-4.646-1.858-6.987c-0.241-0.98-0.2-2.028-0.363-3.033
			c-0.369-2.271-0.786-4.533-1.184-6.798c-0.284,0.057-0.569,0.114-0.855,0.17c0,1.51,0.051,3.021-0.015,4.528
			c-0.055,1.249-0.252,2.491-0.376,3.737c-0.117,1.177-0.406,2.375-0.281,3.526c0.155,1.433,0.657,2.828,1.065,4.468
			c-0.187,0.293-1.019,0.997-1.009,1.688c0.04,3.053,0.408,6.101,0.485,9.156c0.047,1.851-0.36,3.714-0.304,5.563
			c0.059,1.871,0.588,3.729,0.632,5.599c0.05,2.12-0.118,4.258-0.353,6.37c-0.548,4.926-1.026,9.868-1.849,14.75
			c-0.604,3.583-1.807,7.061-2.543,10.626c-0.283,1.365-0.229,2.888,0.047,4.262c0.554,2.745-1.458,4.136-2.869,5.765
			c-1.165,1.345-2.56,2.673-4.129,3.437C643.376,454.729,641.368,454.877,639.088,455.416z M638.604,415.805
			c-0.281-1.498-0.783-3.124-0.853-4.768c-0.113-2.681,0.392-5.133,1.409-7.813c1.188-3.129,0.277-7.056,0.277-10.603
			c-0.862-0.22-1.604-0.409-1.73-0.44c0-2.421,0.172-4.438-0.032-6.417c-0.618-6.015,1.014-12.256-1.799-18.06
			c-0.206-0.425,0.002-1.035-0.058-1.55c-0.389-3.325-1.609-4.336-4.935-4.496c-1.235-0.06-2.448-0.588-4.275-1.059
			c-1.398,3.729-3.387,7.811-4.398,12.124c-0.771,3.296-0.351,6.882-0.378,10.34c-0.016,1.983,0.317,3.981,0.171,5.949
			c-0.238,3.201-0.96,6.375-1.065,9.574c-0.094,2.869,0.293,5.762,0.61,8.629c0.2,1.814,0.739,3.59,0.975,5.401
			c0.126,0.965-0.036,1.975-0.127,2.958c-0.3,3.227-1.037,6.478-0.825,9.667c0.206,3.091,1.42,6.107,2.104,9.175
			c0.407,1.82,1.047,3.087,3.239,3.315c1.91,0.2,3.762,0.964,6.123,1.612c0.333-0.46,1.471-1.359,1.688-2.442
			c1.123-5.584,1.999-11.217,2.987-16.829C637.971,418.609,638.318,417.161,638.604,415.805z M565.753,401.653
			c0.332-0.067,0.661-0.134,0.992-0.2c0.286,0.527,0.752,1.029,0.829,1.585c0.755,5.396-0.918,10.709-0.151,16.23
			c0.817,5.894,0.185,11.988,0.185,18.169c0.922,0,2.176-0.104,3.407,0.02c3.38,0.341,5.676-0.693,6.901-4.178
			c0.568-1.617,2.153-2.877,3.278-4.299c-0.259,0.035-0.517,0.07-0.776,0.104c-0.115-1.343-0.358-2.689-0.31-4.025
			c0.048-1.313,0.95-2.871,0.493-3.871c-1.049-2.288,0.645-2.323,1.239-2.594c-0.4-1.421-1.052-2.653-1.035-3.876
			c0.047-3.61,0.524-7.219,0.525-10.829c0.001-4.288,0.242-8.476-0.854-12.876c-1.18-4.738-0.265-9.985-0.394-15.006
			c-0.036-1.396-0.318-2.868-0.855-4.152c-1.011-2.411-2.444-4.648-3.406-7.075c-0.849-2.141-2.941-3.418-5.084-2.801
			c-1.549,0.446-3.156,0.687-4.985,1.069C565.753,375.647,565.753,388.65,565.753,401.653z M589.769,391.498
			c0.202,0.106,0.404,0.212,0.608,0.318c0.753-1.455,1.544-2.891,2.25-4.368c0.849-1.775,0.975-3.394,0.327-5.493
			c-0.675-2.191,2.96-4.55,0.457-7.213c-0.023-0.025,0.215-0.277,0.308-0.438c1.913-3.309,0.444-6.452-0.558-9.587
			c-0.093-0.292-0.972-0.334-1.174-0.396C591.238,373.501,590.503,382.5,589.769,391.498z M654.888,360.816
			c0.218-0.019,0.436-0.039,0.653-0.059c0.176-1.272-0.104-3.241,0.603-3.703c3.847-2.518,0.07-2.898-0.996-4.599
			c-0.374,1.006-0.569,1.536-0.765,2.063c-0.642-0.305-1.298-0.618-2.625-1.25C652.979,356.216,653.934,358.516,654.888,360.816z"/>
		<path fill-rule="evenodd" d="M140.47,406.454c-2.301,1.594-3.869,2.679-5.638,3.904c-8.711-4.238-15.884-10.787-18.442-21.845
			c2.848,0.19,5.567,0.371,8.688,0.579c-2.768-3.121-6.646-2.559-10.015-3.94c0-6.684-0.095-13.472,0.087-20.252
			c0.033-1.233,1.48-2.371,1.786-3.668c0.59-2.501,0.516-5.184,1.274-7.617c2.436-7.808,8.323-12.098,15.815-14.319
			c1.186-0.352,2.8,0.935,4.261,1.263c1.473,0.33,2.427,1.611,4.582,0.908c2.082-0.679,4.833,0.76,7.307,1.171
			c0.685,0.114,1.426-0.159,2.144-0.176c0.701-0.017,1.616-0.205,2.071,0.151c1.883,1.473,3.938,2.89,5.345,4.766
			c1.842,2.457,3.132,5.329,4.498,7.737c0.285-3.713,0.675-7.711,0.86-11.719c0.081-1.754,0.742-2.403,2.457-2.369
			c4.989,0.099,9.936-0.072,14.971,0.396c7.17,0.667,14.5-0.614,21.741-0.389c3.99,0.124,8.223-2.297,12.041,0.74
			c0.179,0.143,0.516,0.216,0.737,0.159c6.724-1.739,13.471-0.789,20.241-0.373c2.471,0.151,4.998-0.588,7.499-0.926
			c0.407-0.055,0.89-0.318,1.201-0.179c4.202,1.88,8.555,0.188,12.811,0.593c3.446,0.328,4.774,2.502,4.752,6.105
			c2.444-5.778,2.442-5.682,8.584-5.514c5.195,0.142,10.398,0.103,15.594-0.003c2.263-0.046,3.569,0.335,3.855,3.04
			c0.888,8.369,1.976,16.72,3.16,25.052c0.629,4.425,1.663,8.792,2.428,13.201c0.51,2.937,0.775,5.918,1.331,8.845
			c0.276,1.448,0.961,2.819,1.46,4.225c0.322-0.077,0.644-0.154,0.964-0.23c0.43-4.44,0.734-8.897,1.338-13.313
			c0.411-3.006,1.412-5.931,1.844-8.936c0.57-3.961,0.751-7.976,1.262-11.946c0.755-5.87,1.512-11.748,2.628-17.553
			c0.185-0.963,2.178-2.204,3.371-2.244c6.585-0.22,13.183-0.145,19.774-0.087c2.554,0.023,3.639,1.548,3.629,4.023
			c-0.021,5.759-0.005,11.519-0.005,17.278c0,6.802-0.157,13.609,0.051,20.405c0.16,5.25,0.899,10.481,1.137,15.732
			c0.111,2.447-0.501,4.918-0.534,7.382c-0.084,6.306-0.027,12.612-0.029,18.918c0,0.73,0.017,2.098-0.023,2.1
			c-2.04,0.091-0.876,5.81-4.771,2.768c-0.255-0.2-1.605,1.003-3.13,2.001c2.426,0.14,4.125,0.236,5.57,0.318
			c0.806,2.057,1.906,3.977,2.27,6.026c0.414,2.328,0.222,4.772,0.199,7.166c-0.035,3.565,0.238,7.208-0.446,10.653
			c-0.238,1.204-2.873,2.599-4.496,2.712c-2.683,0.187-5.428-0.638-8.156-0.96c-1.933-0.229-5.915-3.997-5.66-5.885
			c0.66-4.879-1.804-9.829,0.414-14.641c-2.393-3.82,0.184-7.98-0.727-11.727c-0.702-2.882-0.309-5.298,0.019-8.059
			c0.429-3.62-0.282-7.375-1.12-11.072c0,2.53,0.154,5.072-0.054,7.584c-0.138,1.669-0.868,3.279-1.201,4.941
			c-0.661,3.295-1.303,6.597-1.821,9.914c-0.72,4.617-1.339,9.25-1.94,13.884c-0.078,0.604,0.335,1.26,0.31,1.884
			c-0.049,1.141-0.074,2.336-0.435,3.398c-0.653,1.925-1.625,3.741-2.315,5.657c-0.545,1.512-0.671,3.192-1.327,4.643
			c-1.485,3.286-1.957,3.282-4.433,0.563c-0.286-0.314-0.826-0.503-1.269-0.55c-0.826-0.088-1.672,0.029-2.5-0.042
			c-1.919-0.164-4.74,0.31-5.55-0.742c-1.432-1.855-1.411-4.758-2.418-7.038c-1.079-2.441,0.71-4.059,1.021-6.037
			c0.438-2.805-0.296-5.793-0.553-9.008c-0.51,0.785-0.901,1.39-1.833,2.827c-1.832-11.622-3.527-22.376-5.221-33.13
			c-0.118,0.002-0.236,0.004-0.354,0.006c0,3.793-0.089,7.589,0.019,11.378c0.209,7.406-0.988,14.832,0.496,22.239
			c0.28,1.402-1.398,3.259-1.016,4.568c1.48,5.075-0.55,9.789-0.655,14.636c-4.505,0.326-8.719,0.638-12.935,0.932
			c-0.517,0.036-1.206,0.188-1.536-0.069c-2.151-1.686-4.431-0.67-6.731-0.618c-4.889,0.109-9.789-0.328-14.681-0.26
			c-5.229,0.073-10.455,0.48-15.684,0.717c-0.791,0.036-1.593-0.006-2.38-0.098c-2.439-0.283-4.865-0.751-7.31-0.882
			c-3.169-0.171-4.562-1.289-4.527-4.48c0.039-3.503,0.5-7.004,0.492-10.505c-0.01-3.71-0.488-7.417-0.52-11.128
			c-0.034-3.854,0.239-7.711,0.342-11.569c0.043-1.629-0.04-3.263-0.003-4.893c0.07-3.231,0.192-6.462,0.276-9.693
			c0.036-1.365,0.343-2.821-0.015-4.083c-1.043-3.679-0.299-7.292-0.228-10.967c0.136-7.003-0.45-14.021-0.75-21.032
			c-0.021-0.504-0.293-1.024-0.218-1.5c0.418-2.643-1.001-3.451-3.307-3.449c-3.542,0.003-7.085,0.001-11.153,0.001
			c0,3.453,0.026,6.812-0.008,10.169c-0.03,3.031-0.145,6.061-0.183,9.092c-0.011,0.859,0.16,1.719,0.169,2.58
			c0.044,4.41,0.076,8.821,0.087,13.23c0.009,2.921,0.045,5.844-0.055,8.762c-0.145,4.238-0.584,8.474-0.564,12.708
			c0.027,5.717,0.463,11.432,0.539,17.148c0.036,2.668-0.503,5.342-0.518,8.013c-0.012,2.027,0.232,4.091,0.655,6.078
			c0.484,2.279-1.466,5.439-3.732,5.464c-5.128,0.056-10.257,0.018-15.553,0.018c-1.369-4.902-1.918-9.698-1.052-14.661
			c0.215-1.235-0.466-2.606-0.375-3.891c0.307-4.298,1.062-8.583,1.108-12.879c0.05-4.712-0.484-9.433-0.788-14.148
			c-0.06-0.918-0.362-1.832-0.338-2.743c0.169-6.337,0.514-12.673,0.559-19.011c0.028-3.922-0.456-7.844-0.556-11.769
			c-0.105-4.085-0.027-8.175-0.023-12.263c0.001-1.665-0.08-2.524-2.456-2.115c-2.769,0.478-5.731-0.188-8.611-0.317
			c-1.224-0.055-2.452-0.009-3.823-0.009c0,3.102-0.03,6.011,0.008,8.919c0.042,3.236-2.27,3.949-4.697,4.086
			c-3.64,0.204-7.32,0.286-10.941-0.049c-1.702-0.156-3.085-0.604-3.687-3.534c-0.748-3.643,0.992-8.667-3.767-11.134
			c-0.385-0.199-0.298-1.307-0.47-2.202c-1.877,0.438-4.686,0.354-5.124,1.332c-1.391,3.104-2.721,6.652-2.534,9.94
			c0.226,3.961,0.815,8.412,4.778,11c4.025,2.629,8.168,5.082,12.144,7.78c2.221,1.509,4.039,3.651,6.336,4.999
			c4.973,2.916,6.143,8.681,9.812,12.552c0.563,0.594,0.214,2.051,0.291,3.108c0.114,1.574,0.301,3.147,0.325,4.725
			c0.017,1.115,0.208,2.649-0.405,3.231c-0.577,0.548-2.188,0.348-3.196,0.02c-1.372-0.447-2.602-1.328-4.299-2.242
			c-0.006,0.004-0.665,0.464-0.902,0.63c0.833,2.254,1.607,4.344,2.613,7.064c0.208-0.145,1.035-0.668,1.806-1.267
			c0.826-0.64,1.6-1.348,2.397-2.026c0.835,1.263,2.466,2.597,2.36,3.775c-0.339,3.803,0.721,7.893-2.031,11.368
			c-0.633,0.799-0.414,2.425-0.293,3.641c0.598,6.075-3.494,10.021-7.094,13.565c-5.213,5.134-12.29,6.504-19.519,6.377
			c-3.196-0.058-6.705,0.364-9.508-0.794c-4.854-2.005-9.542-4.77-11.894-9.985c-1.353-3-2.675-6.02-3.85-9.092
			c-0.191-0.498,0.453-1.316,1.198-1.911c0.235-1.124,1.093-2.877-1.349-3.067c-0.237-0.019-0.528-1.038-0.567-1.608
			c-0.241-3.509-0.415-7.021-0.616-10.532c-0.161-2.794,1.895-4.916,4.792-4.919c4.078-0.004,8.159-0.093,12.23,0.07
			c1.157,0.047,2.282,0.848,3.416,1.301c0.273,4.2,0.562,8.321,0.803,12.446c0.189,3.229,2.541,7.028,5.439,7.191
			c1.973,0.112,4.043-1.495,6.235-2.401c0.022,0.4,0.067,1.188,0.138,2.471c0.74-1.292,1.265-2.208,1.875-3.271
			c-2.462-0.447-2.603-1.241-1.429-3.455c0.977-1.843,0.626-4.418,0.739-6.675c0.038-0.774-0.483-1.577-0.443-2.351
			c0.227-4.328-2.268-7.239-5.366-9.515C137.442,410.762,137.313,410.939,140.47,406.454z M238.365,410.008
			c0,6.969,0.012,13.315-0.008,19.661c-0.006,1.576-0.112,3.152-0.172,4.729c1.674-0.029,3.348-0.061,5.022-0.09
			c0.312-0.004,0.625,0.001,0.937,0.001c3.666,0,7.336-0.121,10.995,0.036c3.36,0.144,6.707,0.586,10.237,0.914
			c0-9.771,0-19.632,0-29.49c-0.342-0.087-0.684-0.174-1.024-0.261c-0.53,0.96-1.029,1.938-1.597,2.873
			c-0.559,0.922-1.077,2.459-1.806,2.582c-2.925,0.495-5.945,0.872-8.893,0.687C247.47,411.361,242.915,410.579,238.365,410.008z
			 M237.142,364.809c-0.24,2.951-0.621,5.502-0.61,8.052c0.014,3.394,0.97,6.914,0.336,10.146c-0.609,3.104,0.586,3.115,2.73,3.115
			c2.401-0.001,4.803,0.046,7.201,0.147c0.903,0.039,2.122,0.738,2.639,0.365c2.438-1.765,4.918-0.757,7.421-0.539
			c4.291,0.374,7.027,3.412,5.757,7.377c-0.925,2.889-0.474,4.905,1.482,6.939c0-16.452,0-32.871,0-49.29
			c-0.293,0.008-0.587,0.017-0.881,0.026c0.216,2.136,0.326,4.288,0.671,6.401c0.615,3.766-0.951,6.766-4.611,7.94
			c-1.136,0.365-2.51-0.075-3.769-0.019c-2.871,0.127-5.748,0.554-8.605,0.449C243.765,365.804,240.644,365.229,237.142,364.809z
			 M152.208,397.332c-2.681-1.776-4.817-1.482-5.782,0.448c-0.758,1.515-1.664,2.954-2.557,4.52c0.123,0.14,0.565,0.638,1.156,1.305
			c0.968-1.234,1.766-2.606,2.896-3.599C149.091,398.979,150.583,398.317,152.208,397.332z M160.432,424.128
			c-1.398-1.106-2.731-2.16-4.035-3.191c-1.126,2.27-1.987,4.002-2.901,5.845C155.918,425.855,157.902,425.096,160.432,424.128z
			 M134.943,390.375c0.001-0.194,0.002-0.39,0.003-0.584c-0.562-0.149-1.122-0.309-1.688-0.444
			c-1.912-0.455-3.819-0.943-5.749-1.304c-0.319-0.059-0.847,0.394-1.078,0.742c-0.107,0.163,0.238,0.919,0.424,0.937
			C129.547,389.987,132.246,390.171,134.943,390.375z"/>
		<path fill-rule="evenodd" d="M44.474,425.688c-0.893-5.539-2.882-10.541-8.967-13.062c-7.158-2.964-13.692-7.144-18.53-13.171
			c-2.497-3.109-4.166-7.275-5.012-11.221c-1.101-5.126-1.207-10.499-1.387-15.778c-0.248-7.253,1.395-14.283,3.957-20.98
			c0.995-2.601,3.102-5.204,5.401-6.796c5.692-3.942,11.714-6.292,19.242-5.915c6.056,0.303,9.884,3.701,14.233,6.371
			c2.384,1.463,3.813,4.822,5.143,7.583c2.308,4.79,3.039,10.095,3.772,15.293c0.344,2.436-0.362,5.083-0.955,7.546
			c-0.18,0.748-1.557,1.676-2.417,1.709c-4.491,0.171-8.993,0.12-13.491,0.063c-2.141-0.026-3.26-2.355-3.547-5.417
			c-0.274-2.925-0.745-6.03-2.023-8.615c-1.857-3.757-4.348-3.908-7.191-0.807c-1.042,1.137-1.985,2.845-2.031,4.321
			c-0.109,3.522-0.577,7.494,0.823,10.474c1.434,3.049,4.706,5.417,7.557,7.576c4.738,3.585,9.961,6.538,14.628,10.205
			c2.63,2.068,4.758,4.886,6.747,7.629c2.342,3.23,3.375,8.603,4.011,12.828c1.25,8.305,0.124,16.384-1.292,24.521
			c-1.518,8.72-10.147,16.623-18.768,18.906c-5.712,1.514-11.078,1.18-16.497,0.23c-2.574-0.451-4.859-2.595-7.253-4.008
			c-1.444-0.852-2.745-2.124-4.295-2.579c-2.132-0.625-2.671-1.752-2.303-3.729c0.316-1.699,0.497-3.195-1.411-4.452
			c-0.778-0.512-0.395-2.556-0.907-3.744c-2.406-5.576-1.752-11.438-1.833-17.242c-0.018-1.31-0.553-2.634-0.442-3.916
			c0.077-0.879,0.695-1.897,1.389-2.465c0.388-0.315,1.444,0.098,2.165,0.303c1.367,0.388,2.707,1.216,4.062,1.227
			c3.083,0.024,6.174-0.272,9.25-0.562c2.449-0.23,3.342,1.281,3.589,3.219c0.614,4.805,1.031,9.633,1.562,14.448
			c0.198,1.8,4.598,3.936,6.555,3.405c3.431-0.929,4.59-3.81,5.553-6.621C44.245,430.472,44.166,428.216,44.474,425.688z"/>
		<path fill-rule="evenodd" d="M407.034,432.436c-5.885-0.285-11.656-0.563-17.857-0.863c0.225-2.205,0.033-4.544,0.758-6.553
			c1.351-3.745,0.148-7.467,0.516-11.175c0.332-3.354,0.784-6.729,0.729-10.086c-0.097-5.964,0.725-12.378-1.215-17.746
			c-1.696-4.695-0.211-9.613-2.593-13.919c-0.261-0.471-0.035-1.21-0.035-2.522c0.801,1.113,1.224,1.7,1.748,2.429
			c0.052-0.519,0.187-0.905,0.111-1.245c-0.602-2.697-1.125-5.419-1.903-8.065c-0.806-2.736-5.27-4.562-8.064-3.155
			c1.419,0.226,2.561,0.407,3.313,0.527c-1.859,0.849-4.373,1.257-5.555,2.732c-1.348,1.678-1.634,4.279-2.15,6.531
			c-1.141,4.969-2.267,9.948-3.148,14.967c-0.605,3.45-0.823,6.97-1.103,10.467c-0.021,0.271,0.86,0.598,1.303,0.926
			c0.563,0.418,1.442,0.772,1.588,1.316c0.262,0.973,0.078,2.065,0.079,3.109c0.002,2.417,0.174,4.852-0.047,7.249
			c-0.2,2.174,1.24,4.791-1.496,6.461c-0.234,0.144-0.015,1.293,0.217,1.888c0.524,1.343,1.188,2.631,1.153,4.31
			c-0.387-0.333-0.773-0.666-1.494-1.283c-0.612,1.94-1.522,3.23,0.131,5.417c1.266,1.675,0.916,4.511,1.538,6.761
			c0.276,1.004,1.13,1.871,1.798,2.74c0.597,0.777,1.595,1.368,1.901,2.225c1.188,3.311,4.341,4.122,7.097,1.703
			c2.351-2.063,4.833-3.415,8.229-3.37c4.614,0.061,9.237-0.549,14.498-0.916c-0.89,3.636-1.518,6.573-2.354,9.451
			c-0.386,1.33-1.309,2.459,0.937,3.039c0.511,0.132,1.079,1.652,0.896,2.342c-0.146,0.551-1.37,0.86-2.152,1.189
			c-1.26,0.529-2.693,0.775-3.791,1.524c-1.492,1.02-1.949,3.145-4.552,3.163c-0.927,0.007-1.833,2.835-2.752,4.381
			c0.428,0.289,0.941,0.635,1.457,0.981c-0.525,0.221-1.042,0.606-1.577,0.635c-4.45,0.233-8.902,0.448-13.357,0.553
			c-1.095,0.027-2.201-0.357-3.298-0.57c-1.594-0.307-3.071-1.471-4.747,0.38c-0.583,0.645-3.128,1.013-2.95-1.703
			c0.023-0.354-0.404-0.791-0.709-1.104c-1.945-1.994-3.975-3.909-5.848-5.967c-0.776-0.854-2.274-1.76-0.353-3.255
			c0.371-0.288-0.547-2.367-1.008-3.567c-0.919-2.395-2.102-4.698-2.864-7.137c-0.806-2.576-1.25-5.265-1.875-8.005
			c0.938-0.365,1.953-0.761,3.576-1.392c-1.509-0.136-2.427-0.218-3.745-0.336c0-3.068,0.103-6.188-0.053-9.295
			c-0.057-1.156-0.479-2.451-1.147-3.39c-2.115-2.971-1.246-6.244-1.319-9.45c-0.073-3.195-0.532-6.388-0.484-9.576
			c0.06-3.913,0.514-7.816,0.716-11.729c0.204-3.944,0.311-7.894,0.448-11.841c0.03-0.833-0.256-1.784,0.051-2.484
			c1.993-4.525,2.104-9.385,2.791-14.154c0.116-0.803,1.196-1.429,1.686-2.225c1.45-2.357,2.618-4.916,4.278-7.108
			c2.961-3.913,6.769-6.056,11.862-7.119c4.73-0.987,9.275-0.548,13.401,0.553c4.787,1.278,9.976,3.219,12.277,8.736
			c1.453,3.486,3.969,6.648,4.809,10.237c0.949,4.047,0.559,8.409,0.737,12.636c0.04,0.953-0.069,1.922,0.053,2.862
			c0.371,2.843,1.17,5.675,1.173,8.512c0.006,6.985-0.372,13.969-0.515,20.955c-0.027,1.281,0.497,2.575,0.474,3.857
			c-0.063,3.346-0.303,6.689-0.434,10.035c-0.032,0.818-0.185,2.194,0.177,2.37c2.154,1.048,1.062,2.736,0.961,4.139
			C407.774,426.969,407.384,429.503,407.034,432.436z"/>
		<path fill-rule="evenodd" d="M523.199,449.936c2.057,1.302,4.112,2.603,6.114,3.867c-1.002,3.747-1.832,4.292-5.085,3.6
			c-2.497-0.53-4.783-1.296-7.41,0.476c-2.033,1.371-4.852-1.399-4.418-3.883c0.132-0.751,0.761-2.204-1.189-1.681
			c-0.097,0.025-0.528-0.585-0.525-0.895c0.027-2.424,0.35-4.868,0.127-7.264c-0.18-1.945-1.035-3.82-1.488-5.752
			c-0.133-0.563,0.089-1.21,0.884-1.861c-0.787-0.971-1.575-1.94-2.85-3.509c-0.763,1.14-1.227,2.065-1.928,2.752
			c-0.232,0.228-1.403,0.004-1.562-0.309c-0.299-0.589-0.172-1.392-0.197-1.754c-2.09,0.19-4.156,0.835-6.008,0.447
			c-3.2-0.67-6.119-1.142-8.662,1.5c-0.234,0.243-0.739,0.226-1.117,0.328l0.099,0.098c-2.881-1.014-5.747-2.074-8.648-3.023
			c-1.729-0.565-4.104-0.424-5.13-1.558c-1.386-1.53-3.259-3.296-2.015-6.263c1.357-3.24,1.097-7.37,2.976-10.14
			c4.218-6.223,2.361-13.688,5.171-20.195c1.694-3.922,1.54-8.643,2.282-13.423c-0.68,0.364-1.037,0.556-2.197,1.179
			c0.384-2.251,0.696-3.968,0.966-5.691c0.79-5.043,1.567-10.089,2.336-15.136c0.077-0.512-0.148-1.233,0.122-1.526
			c3.813-4.121,3.18-9.528,4.206-14.435c0.908-4.344,1.926-5.177,6.229-4.856c4.121,0.307,8.259,0.634,12.385,0.57
			c2.718-0.042,4.149,1.108,4.564,3.533c1.534,8.953,2.894,17.937,4.462,26.885c0.506,2.884,1.479,5.683,2.181,8.536
			c0.209,0.848,0.221,1.744-0.34,3.055c-0.492-0.741-0.984-1.48-1.561-2.347c1.09,5.956,2.135,11.665,3.219,17.588
			c0.174-1.427,0.325-2.668,0.477-3.908c0.239-0.006,0.477-0.012,0.716-0.018c1.06,6.181,2.119,12.36,3.245,18.933
			c-0.786-0.501-1.171-0.745-1.574-1.002c0.292,2.528,0.531,5.043,0.881,7.542c0.45,3.214,0.867,6.441,1.558,9.605
			c0.217,0.992-0.335,3.172,2.1,2.563c0.095,1.611,1.683,3.481-0.504,4.497c0.617,3.552,1.218,7.011,1.832,10.545
			c-1.114,0.243-2.002,0.438-3.544,0.776c1.787,0.535,2.817,0.844,3.848,1.152c-0.073,0.338-0.146,0.676-0.22,1.013
			c-1.631-0.174-3.263-0.349-4.893-0.524c1.617-2.144-0.696-4.539,0.403-7.025c-0.72,5.401-4.47,5.407-8.315,5.215
			C517.866,448.788,520.532,449.361,523.199,449.936z M505.626,414.353c0.328-0.11,0.656-0.221,0.984-0.332
			c-1.937-12.815-3.874-25.63-5.811-38.444c-1.452,6.206-2.579,12.403-3.241,18.649c-0.523,4.932-0.615,9.927-0.572,14.891
			c0.01,1.097,1.683,3.22,2.106,3.104C501.826,411.473,503.624,413.122,505.626,414.353z"/>
		<path fill-rule="evenodd" d="M79.04,447.075c0.935,0,1.648,0.092,1.68-0.015c0.252-0.867,0.482-1.766,0.522-2.663
			c0.208-4.687,0.365-9.374,0.501-14.063c0.007-0.224-0.354-0.458-0.779-0.968c-0.27,1.157-0.484,2.081-0.699,3.006
			c-0.269-0.008-0.537-0.015-0.805-0.021c-0.21-3.615-0.944-7.294-0.503-10.826c0.612-4.894,0.458-9.485-1.116-14.202
			c-2.215-6.639-3.93-13.441-5.966-20.143c-1.702-5.602-3.593-11.145-5.321-16.739c-0.599-1.938-0.931-3.958-1.433-5.928
			c-1.417-5.565-2.898-11.115-4.26-16.694c-0.29-1.188-0.128-2.477-0.268-3.709c-0.258-2.264,0.573-3.317,2.97-3.086
			c3.054,0.293,6.119,0.537,9.184,0.612c1.547,0.038,3.122-0.25,4.652-0.554c2.634-0.521,4.796,1.673,5.145,4.92
			c0.675,6.293,2.494,12.303,4.593,18.271c0.997,2.833,1.11,5.974,1.662,8.968c0.085,0.463,0.379,0.887,1.293,1.371
			c0.812-4.39,1.405-8.833,2.488-13.155c1.446-5.772,3.256-11.454,4.939-17.166c0.683-2.316,2.128-3.111,4.622-2.708
			c2.132,0.345,4.364,0.072,6.799,0.072c-0.458,0.659-0.795,1.145-1.365,1.966c2.174,0,3.949,0,5.723,0
			c0.025-0.141,0.049-0.281,0.074-0.421c-0.935-0.383-1.87-0.766-2.805-1.149c0.02-0.23,0.04-0.46,0.06-0.69
			c1.88,0.114,3.805,0.029,5.62,0.436c0.76,0.171,1.892,1.459,1.814,2.117c-0.344,2.908-0.997,5.786-1.663,8.646
			c-1.663,7.133-3.345,14.262-5.15,21.359c-0.271,1.064-1.247,1.95-2.217,3.396c1.002,1.687-0.117,3.481-1.269,5.723
			c-1.425,2.776-1.555,6.196-2.404,9.294c-1.367,4.995-3.142,9.896-4.214,14.949c-0.806,3.801-0.899,7.771-1.1,11.678
			c-0.304,5.911-0.578,11.834-0.58,17.752c-0.003,5.485,0.445,10.97,0.549,16.458c0.094,4.985-1.819,6.245-6.631,5.45
			c-2.994-0.493-6.15-0.28-9.206-0.034c-2.264,0.182-3.933,0.105-4.188-2.661C79.707,452.888,79.341,449.853,79.04,447.075z"/>
		<path fill-rule="evenodd" d="M445.294,358.389c-0.067,0.204-0.324,0.971-0.596,1.782c-0.677-0.229-1.389-0.467-2.222-0.748
			c0.482,1.994,0.932,3.854,1.471,6.086c-2.228-0.104-4.024,0.057-5.707-0.311c-5.428-1.185-7.242,0.01-7.708,5.426
			c-0.23,2.688,0.505,5.385-1.632,7.949c-0.734,0.88,0.716,3.636,1.273,5.502c0.183,0.616,0.698,1.131,1.293,2.046
			c3.082,0,6.628,0,10.175,0.002c0.208,0,0.533-0.066,0.607,0.039c2.707,3.777,5.598,0.785,8.377,0.193
			c2.985-0.636,4.846,0.793,4.953,3.849c0.141,4.023,0.403,8.042,0.612,12.062c0.012,0.208-0.073,0.5,0.034,0.613
			c3.625,3.837,0.671,5.276-2.408,6.696c-0.136,0.063-0.123,0.394-0.246,0.547c-0.11,0.138-0.313,0.203-0.902,0.56
			c-0.715-2.478-1.395-4.83-2.135-7.394c-0.044,0.925-0.083,1.763-0.134,2.819c-0.762-0.074-1.449-0.143-2.529-0.247
			c0.532,1.836,1.052,3.627,1.609,5.549c-6.269-0.603-12.226-1.174-18.33-1.759c0,3.257,0.109,6.198-0.069,9.122
			c-0.051,0.829-0.937,1.607-1.438,2.409c-0.495,0.011-0.989,0.021-1.483,0.032c0.899,1.418,1.799,2.836,2.698,4.255
			c0.262-0.122,0.525-0.243,0.789-0.363c-0.165,0.862-0.413,1.719-0.479,2.587c-0.33,4.39-0.346,4.361-4.745,4.142
			c-1.416-0.07-2.853,0.283-4.282,0.416c-0.606,0.057-1.24,0.159-1.827,0.049c-2.473-0.465-4.932-1.002-7.603-1.554
			c0-1.227,0-3.385,0-5.542c-0.312,0.003-0.623,0.007-0.935,0.01c0,2.156,0,4.313,0,6.47c-0.263,0.017-0.525,0.034-0.788,0.051
			c-0.547-2.977-1.154-5.946-1.514-8.947c-0.025-0.211-0.362-3.102,1.986-1.819c0.282-0.546,0.817-1.097,0.807-1.638
			c-0.097-4.759-0.454-9.517-0.42-14.271c0.063-9.186,0.391-18.368,0.479-27.554c0.026-2.771-0.538-5.544-0.549-8.319
			c-0.032-7.993,0.075-15.986,0.144-23.979c0.003-0.371,0.115-1.043,0.254-1.065c2.637-0.4,3.836-4.13,7.455-2.756
			c1.941,0.737,4.467-0.129,6.729-0.161c6.28-0.092,12.563-0.26,18.839-0.12c2.748,0.062,3.663,2.142,2.319,4.555
			c-0.91,1.637-2.024,3.162-2.909,4.812c-0.623,1.16-1.447,2.465-1.387,3.667C443.283,355.351,444.324,356.513,445.294,358.389z"/>
		<path fill-rule="evenodd" d="M430.73,453.026c-1.013,5.028-2.021,5.955-8.678,6.245c-1.86,0.081-3.756-0.698-5.639-1.066
			c-1.892-0.373-3.787-0.725-5.554-1.062c-0.272-3.679-0.707-7.406-0.774-11.141c-0.064-3.495,0.056-7.026,0.553-10.477
			c0.134-0.931,1.867-2.191,2.977-2.314c2.999-0.335,6.06-0.229,9.09-0.127c2.788,0.096,5.585,0.312,8.339,0.727
			c0.539,0.082,1.335,1.363,1.269,2.015c-0.205,2.001-0.696,3.987-1.253,5.928c-0.14,0.487-0.946,0.783-1.372,1.109
			c0.49,0.559,1.317,1.068,1.399,1.677c0.277,2.066-0.979,4.407,1.205,6.177C432.354,450.768,431.277,452.225,430.73,453.026z"/>
		<path fill-rule="evenodd" d="M487.885,435.999c2.775,1.422,1.494,3.897,1.375,5.925c-0.21,3.568-0.93,7.107-1.114,10.677
			c-0.15,2.897-2.841,5.155-6.268,4.868c-2.91-0.243-5.822-0.482-8.738-0.607c-1.995-0.086-2.562-0.877-3.372-2.903
			c-1.906-4.763,0.727-9.116,0.235-13.648c-0.081-0.746,0.149-1.954,0.653-2.258c1.846-1.113,1.943-3.246,3.084-4.915
			c4.8,1,9.526,1.984,14.249,2.964C487.983,436.097,487.885,435.999,487.885,435.999z"/>
	</g>
	<path fill-rule="evenodd" d="M446.47,365.177c0.271-2.849,1.216-5.68,0.637-8.154c-1.184-5.057,1.134-9.025,2.687-13.39
		c1.056-2.966,3.481-2.578,5.203-2.346c1.643,0.222,3.146,1.833,1.927,4.268c-0.444,0.888,0.063,2.23,0.054,3.364
		c-0.04,4.752-0.046,9.505-0.249,14.25c-0.026,0.654-1.01,1.696-1.685,1.816c-2.484,0.447-5.021,0.621-7.545,0.792
		C447.097,365.806,446.657,365.294,446.47,365.177z"/>
</g>
</svg>
