<?xml version="1.0" encoding="utf-8"?>
<!-- Generator: Adobe Illustrator 19.0.0, SVG Export Plug-In . SVG Version: 6.00 Build 0)  -->
<svg version="1.1" id="Layer_1" xmlns="http://www.w3.org/2000/svg" xmlns:xlink="http://www.w3.org/1999/xlink" x="0px" y="0px"
	 viewBox="0 0 500 500" style="enable-background:new 0 0 500 500;" xml:space="preserve">
<g id="XMLID_1_">
	<path id="XMLID_3_" d="M116.3,211.1c14.4-10.9,25.9-23.8,36-37.5l-16.8,37.3l1.7,4.1l15.8-13.8v39.6l-17.5,16.3l4.8-33.3l-6.5,8
		l-3.8-8.3c-9.2,19.9-18.4,39.7-27.5,59.6c-1,2.2,1.3,3.8,3.3,2.3l12.8-10.5l-51.1,51.8l53.6-103.4l9.3-18c0.2-0.4,0-1.5-1.3-1.2
		L116.3,211.1z"/>
	<path id="XMLID_4_" d="M241.9,201H254v28.3h15.1v11.1c-9.1,0-18.2,0-27.3,0V201z"/>
	<path id="XMLID_5_" d="M271.2,201h12.1v28.3h14.1v11.1c-9.1,0-17.2,0-26.3,0V201z"/>
	<rect id="XMLID_6_" x="299.9" y="201" width="12.3" height="39.4"/>
	<polygon id="XMLID_7_" points="206,211.7 206,240.4 193,240.4 193,211.7 186.5,211.7 186.5,201 220.9,201 216.3,211.7 	"/>
	<path id="XMLID_8_" d="M156.2,201c9.2,0,18.4,0,27.6,0v10.7h-15.3v4h15.3v10.7h-15.3v3.2h15.3v10.7c-9.2,0-18.4,0-27.6,0V201z"/>
	<path id="XMLID_11_" d="M238.7,201l0.1,39.4h-11.7v-11h-0.9l-5.4,11h-12.6l17.3-39.4H238.7z M225.6,221.2l3,0.1v-5.6L225.6,221.2z"
		/>
	<path id="XMLID_12_" d="M335.4,198.7c5.3,0,10.2,2,13.9,5.3l-9,9.3c-1.4-1.1-3.2-1.8-5.2-1.8c-4.4,0-8.1,3.5-8.1,7.8
		c0,4.3,3.6,7.8,8.1,7.8c3.3,0,6.1-1.9,7.3-4.6l11.1,7.2c-3.6,6.3-10.4,10.7-18.3,10.7c-11.5,0-20.9-9.4-20.9-20.8
		C314.4,208,323.8,198.7,335.4,198.7z"/>
	<path id="XMLID_15_" d="M343.6,174.1c12.2,10.8,24.5,21.4,37.4,31.5c-4.3-2.5-8.6-5-12.8-7.5c-1.4-0.7-3.5,0-2,2.9
		c22.1,41.6,44.7,82.9,66.4,124.7c-18.9-17.7-37.1-34.9-54.6-51.9l18.4,11.3c2.2,0.9,3.6-0.9,1.3-4.5l-22.2-46l-3.8-7.7l-5.2-0.2
		l4.8,30.9l-14.9-17.3l-2.6-47.9L343.6,174.1z M364.5,216.1h2.9l-4.3-7L364.5,216.1z"/>
</g>
</svg>
